<svg xmlns="http://www.w3.org/2000/svg" xmlns:xlink="http://www.w3.org/1999/xlink" width="360" height="360" version="1"><defs><linearGradient xlink:href="#a" id="j" gradientUnits="userSpaceOnUse" gradientTransform="matrix(.5774 0 0 1.39239 44.857 -213.354)" x1="414.132" y1="240.144" x2="302.991" y2="240.802"/><linearGradient xlink:href="#b" id="i" gradientUnits="userSpaceOnUse" gradientTransform="matrix(.58452 0 0 1.41222 44.857 -224.701)" x1="299.373" y1="252.27" x2="411.727" y2="252.27"/><radialGradient xlink:href="#c" id="h" gradientUnits="userSpaceOnUse" gradientTransform="matrix(.33029 .41854 -.88885 .70142 240.508 -75.85)" cx="152.811" cy="105.521" fx="152.811" fy="105.521" r="32.438"/><linearGradient xlink:href="#d" id="g" gradientUnits="userSpaceOnUse" gradientTransform="rotate(45 272.756 120.857) scale(1.00007 .99993)" x1="150.495" y1="42.808" x2="345.533" y2="242.18"/><linearGradient id="e"><stop offset="0" stop-color="#37abc8"/><stop offset="1" stop-color="#41c8e2"/></linearGradient><linearGradient id="c"><stop offset="0" stop-color="#fff"/><stop offset="1" stop-color="#fff" stop-opacity="0"/></linearGradient><linearGradient id="a"><stop offset="0" stop-color="#241f1c"/><stop offset="1" stop-color="#b3b3b3"/></linearGradient><linearGradient id="b"><stop offset="0" stop-color="#241f1c"/><stop offset="1" stop-color="#b3b3b3"/></linearGradient><linearGradient id="d"><stop offset="0" stop-color="#747474"/><stop offset=".5" stop-color="#bebebe"/><stop offset=".625" stop-color="#d5d5d5"/><stop offset=".75" stop-color="#818181"/><stop offset="1" stop-color="#c3c3c3"/></linearGradient><linearGradient xlink:href="#e" id="f" x1="333.467" y1="111.855" x2="226.242" y2="114.196" gradientUnits="userSpaceOnUse"/></defs><path d="M28.89 33.395l2.68 101.191-4.691 86.448 4.02 107.222 96.5-1.34 104.543 2.68 101.19-3.35-4.02-93.82 6.031-99.85-2.01-98.51H214.518l-92.48-3.352-93.149 2.68z" fill="#288aaa" fill-rule="evenodd" stroke="#28433c" stroke-width="5.307"/><path d="M32.994 274.947l76.674-81.775s48.339-54.869 67.902-63.09" fill="none" stroke="#b7c8c4" stroke-width="2.654" stroke-linejoin="round" stroke-dasharray="10.61447024,2.65361757"/><path d="M29.56 238.458c-.901-16.61 17.844-35.59 26.166-43.845 9.033-8.96 34.955-24.529 42.985-34.398 15.628-19.209 6.938-43.976 21.393-62.576 21.785-28.03 58.475-45.796 88.383-62.904C243.854 36.4 301.44 37 330.452 36.745c.372 43.521 4.043 124.83.67 166.778-3.356 48.58 6.832 93.925-2.337 123.47-85.49 1.03-119.655 1.196-224.195.037-21.24.514-48.24-1.704-71.68-1.79-.43-20.866-1.214-59.554-3.35-86.782z" fill="#37abc8" fill-rule="evenodd" stroke="#14465a" stroke-width=".663"/><path d="M173.045 328.363s-16.094-24.239-7.709-29.076c25.199-12.317 10.098-14.231 36.201-21.272 8.782.39 30.663-11.257 38.175-1.523.514 4.48 5.2 30.859 7.13 34.934 8.73 18.43 17.312-8.963 35.05-19.027 10.507-5.962 27.901-36.217 39.97-36.787 3.578-.17 9.012 9.012 9.012 9.012l2.088 60.32-102.141 4.507-57.776-1.088z" fill="#e9c6af" fill-rule="evenodd" stroke="#000" stroke-width="2.6" stroke-linejoin="round"/><path d="M154.364 32.198s-66.022 52.167-77.182 68.684c-18.036 26.692 70.424 225.502 70.424 225.502" fill="none" stroke="#e6e6e6" stroke-width="5" stroke-dasharray="30,5" stroke-dashoffset="11"/><path d="M122.185 325.762L28.724 40.33" fill="none" stroke="#e6e6e6" stroke-width="5" stroke-dasharray="30,5" stroke-dashoffset="15.5"/><path d="M327.962 242.566c-44.968 6.59-86.796 14.491-137.8 22.986-13.03-53.165-14.38-64.21-19.87-83.649" fill="none" stroke="purple" stroke-width="2.654" stroke-dasharray="10.61446953,2.65361738" stroke-dashoffset="11.676"/><path d="M28.833 33.52l2.68 101.19-4.69 86.449 4.02 107.222 96.5-1.34 104.543 2.68 101.19-3.35-4.02-93.82 6.031-99.85-2.01-98.511H214.462l-92.48-3.35-93.149 2.68z" fill="none" stroke="#102844" stroke-width="5.307"/><path d="M347.483 129.18a87.622 87.622 0 1 1-175.244 0 87.622 87.622 0 1 1 175.244 0z" transform="translate(-69.543 -17.897) scale(1.15782)" fill="url(#f)" fill-rule="evenodd"/><g stroke="purple"><path d="M251.352 113.143c40.293-4.65 73.503-9.205 73.503-9.205" fill="none" stroke-width="5.307" stroke-dasharray="21.22893906,5.30723476"/><path d="M175.334 212.481c-4.832-21.516-13.926-65.987-17.202-83.814 16.517-3.021 35.646-6.749 65.02-11.389" fill="none" stroke-width="5.307" stroke-dasharray="21.22800064,5.30700016" stroke-dashoffset="33.434"/><path d="M236.103 55.6c-8.08 0-14.634 6.556-14.634 14.635 0 6.52 4.293 12.034 10.188 13.924l-.061 2.748h-22.322v10.96h22.106l-1.575 82.372c-.05-.005-.104.004-.154 0-.708-.068-1.426-.124-2.13-.216-.053-.007-.103-.025-.155-.031-.725-.097-1.44-.186-2.161-.309-.032-.005-.061-.026-.093-.03-6.018-1.034-11.874-2.963-17.351-5.836a73.41 73.41 0 0 1-6.576-3.643 73.169 73.169 0 0 1-2.624-1.729 59.626 59.626 0 0 1-.803-.71 3451.52 3451.52 0 0 0 5.28-5.68c-8.607-6.805-17.254-13.558-25.873-20.347l.864 5.063c2.021 11.866 4.008 23.737 6.052 35.598 2.585-2.767 5.164-5.539 7.75-8.305.403.31.866.617 1.388.926 9.768 9.544 22.865 15.43 36.37 16.827l-.216 11.423h13.492l-.216-11.362c6.23-.623 12.341-2.282 18.06-5.063 7.143-3.183 13.598-7.848 19.235-13.307 2.732 2.93 5.448 5.873 8.182 8.8 2.335-13.55 4.627-27.109 6.946-40.662l-4.044 3.18c-7.273 5.726-14.569 11.423-21.828 17.166 1.634 1.762 3.273 3.52 4.91 5.28-.53.393-1.05.917-1.606 1.543-8.882 6.336-19.347 10.165-30.072 11.331l-1.574-82.279h22.106v-10.96h-22.322l-.062-2.748h.093a14.643 14.643 0 0 0 10.065-13.924c0-8.08-6.555-14.634-14.635-14.634zm0 8.43c3.513 0 6.391 2.847 6.391 6.36 0 3.512-2.878 6.36-6.39 6.36a6.36 6.36 0 1 1 0-12.72z" fill="purple" fill-rule="evenodd" stroke-width="3.361"/></g><g transform="translate(-1.874 3.337)"><path d="M315.674 42.973c-41.491-41.49-108.836-41.513-150.327-.022-37.213 37.213-40.94 95.187-11.402 136.693l-26.185 26.185 25.058 25.058 26.185-26.185c41.505 29.538 99.48 25.81 136.693-11.402 41.49-41.491 41.469-108.836-.022-150.327zm-12.53 12.53c34.577 34.575 34.599 90.692.023 125.268-34.576 34.576-90.715 34.576-125.29 0-34.577-34.576-34.577-90.715 0-125.29 34.575-34.577 90.692-34.555 125.268.021z" fill="url(#g)" stroke="#1a1a1a" stroke-width="3.628" transform="translate(-32.321 -4.44) scale(1.1025)"/><path d="M265.878 42.886c-4.553 12.204-26.995 5.618-52.436 22.97-25.44 17.351-31.797 46.767-43.636 46.8-8.39-10.446 2.201-44.782 27.642-62.133 25.44-17.352 60.04-18.083 68.43-7.637z" fill="url(#h)" transform="translate(-32.321 -4.44) scale(1.1025)"/><rect transform="rotate(45)" ry="19.19" rx="16.758" y="55.926" x="222.993" height="151.268" width="59.379" fill="url(#i)" stroke="url(#j)" stroke-width="6.826" stroke-linejoin="round"/></g></svg>