<svg xmlns="http://www.w3.org/2000/svg" width="120" height="120"><defs><pattern viewBox="20 -72 72 72" id="a" patternUnits="userSpaceOnUse" height="72" width="72" y="200" x="144"><path class="st4" d="M20 0v-72h72V0z"/><path class="st3" d="M19.75-3.601h72.5M19.75-18h72.5M19.75-32.4h72.5M19.75-46.8h72.5M19.75-61.2h72.5M0-61.2h14M19.75-10.8h72.5M19.75-25.2h72.5M19.75-39.601h72.5M19.75-54h72.5M19.75-68.4h72.5M0-68.4h14"/></pattern><pattern viewBox="20 -72 72 72" id="b" patternUnits="userSpaceOnUse" height="72" width="72" y="200" x="144"><path class="st4" d="M20 0v-72h72V0z"/><path class="st3" d="M19.75-3.601h72.5M19.75-18h72.5M19.75-32.4h72.5M19.75-46.8h72.5M19.75-61.2h72.5M0-61.2h14M19.75-10.8h72.5M19.75-25.2h72.5M19.75-39.601h72.5M19.75-54h72.5M19.75-68.4h72.5M0-68.4h14"/></pattern></defs><g transform="translate(0 -280)"><rect ry="20" rx="20" y="280" height="120" width="120" fill="#009000"/><rect ry="20" rx="20" y="280" height="120" width="120" fill="#00213e"/><path d="M109.231 300.096c-2.125 0-4.203-.387-6.031-1.039a18.07 18.07 0 0 0-6.227-1.095c-2.195 0-4.32.4-6.203 1.095a18.073 18.073 0 0 1-12.086 0c-1.875-.695-4-1.095-6.227-1.095-2.195 0-4.32.4-6.219 1.095a18.077 18.077 0 0 1-6.031 1.039c-2.148 0-4.203-.387-6.039-1.039a18.104 18.104 0 0 0-6.227-1.095c-2.211 0-4.32.4-6.211 1.095a18.204 18.204 0 0 1-6.047 1.039c-2.149 0-4.195-.387-6.039-1.039a18.047 18.047 0 0 0-6.211-1.095c-2.227 0-4.336.4-6.219 1.095a18.16 18.16 0 0 1-6.039 1.039v-7.132c2.148 0 4.195-.381 6.039-1.033a18.5 18.5 0 0 1 12.43 0 18.207 18.207 0 0 0 12.086 0 18.5 18.5 0 0 1 12.438 0 18.124 18.124 0 0 0 6.039 1.033c2.148 0 4.195-.381 6.031-1.033a18.645 18.645 0 0 1 6.219-1.076c2.227 0 4.352.4 6.227 1.076a18.076 18.076 0 0 0 6.031 1.033c2.148 0 4.203-.381 6.055-1.033a18.489 18.489 0 0 1 12.43 0 18.143 18.143 0 0 0 6.031 1.033v7.132z" fill="#fff"/><g fill="#fff"><path d="M33.933 321.202l-5.236-10.153-15.602-.046 15.056 15.39zM80.968 354.114c2.846.782 5.904-.827 6.716-3.718.782-2.846-.88-5.836-3.748-6.64l-2.232-.623-2.891 10.343 2.155.638zM79.215 342.473l-18.024-5.077c-1.184-.311-2.375.402-2.701 1.586l-1.692 6.025a2.212 2.212 0 0 0 1.525 2.755l18.023 5.024 2.869-10.313z"/><path d="M82.06 359.593c-1.373-1.306-3.08-2.345-5.076-2.892l-21.848-6.116-13.424-23.814c-.706-1.23-1.844-2.208-3.316-2.611a5.513 5.513 0 0 0-6.808 3.847 5.385 5.385 0 0 0 .426 4.03l16.794 29.451s1.373 2.208 4.834 3.346l30.53 8.56 14.16 14.373c.47.493 1.085.872 1.821 1.085 2.132.592 4.364-.683 4.986-2.793.402-1.495-.076-3.065-1.138-4.037l-21.94-22.43zM98.353 365.542l3.173 4.151 6.45-7.042-5.448-3.036a7.842 7.842 0 0 0-5.645-8.583c-4.174-1.16-8.515 1.26-9.676 5.434a7.82 7.82 0 0 0 5.434 9.676c1.986.569 4.006.258 5.712-.6z"/></g></g></svg>