<?xml version="1.0" encoding="UTF-8" standalone="no"?>
<svg
   xmlns:dc="http://purl.org/dc/elements/1.1/"
   xmlns:cc="http://creativecommons.org/ns#"
   xmlns:rdf="http://www.w3.org/1999/02/22-rdf-syntax-ns#"
   xmlns:svg="http://www.w3.org/2000/svg"
   xmlns="http://www.w3.org/2000/svg"
   xmlns:xlink="http://www.w3.org/1999/xlink"
   xmlns:sodipodi="http://sodipodi.sourceforge.net/DTD/sodipodi-0.dtd"
   xmlns:inkscape="http://www.inkscape.org/namespaces/inkscape"
   fill="currentColor"
   width="50"
   height="50"
   viewBox="0 0 40 40"
   style="vertical-align:middle;display:inline-block;fill:#666;"
   size="50"
   preserveAspectRatio="xMidYMid meet"
   id="svg2"
   version="1.1"
   inkscape:version="0.91 r13725"
   sodipodi:docname="mapMarker.svg">
  <metadata
     id="metadata12">
    <rdf:RDF>
      <cc:Work
         rdf:about="">
        <dc:format>image/svg+xml</dc:format>
        <dc:type
           rdf:resource="http://purl.org/dc/dcmitype/StillImage" />
        <dc:title></dc:title>
      </cc:Work>
    </rdf:RDF>
  </metadata>
  <defs
     id="defs10">
    <linearGradient
       inkscape:collect="always"
       id="linearGradient4204">
      <stop
         id="stop4208"
         offset="0"
         style="stop-color:#2e85cb;stop-opacity:1" />
      <stop
         id="stop4206"
         offset="1"
         style="stop-color:#205c8c;stop-opacity:1" />
    </linearGradient>
    <linearGradient
       inkscape:collect="always"
       xlink:href="#linearGradient4204"
       id="linearGradient4210"
       x1="20.173281"
       y1="2.6215279"
       x2="20.303257"
       y2="38.096714"
       gradientUnits="userSpaceOnUse" />
  </defs>
  <sodipodi:namedview
     pagecolor="#ffffff"
     bordercolor="#666666"
     borderopacity="1"
     objecttolerance="10"
     gridtolerance="10"
     guidetolerance="10"
     inkscape:pageopacity="0"
     inkscape:pageshadow="2"
     inkscape:window-width="1615"
     inkscape:window-height="1026"
     id="namedview8"
     showgrid="false"
     inkscape:zoom="6.675088"
     inkscape:cx="14.740697"
     inkscape:cy="21.990602"
     inkscape:window-x="1985"
     inkscape:window-y="24"
     inkscape:window-maximized="1"
     inkscape:current-layer="svg2" />
  <g
     id="g4"
     style="fill:#2e85cb;fill-opacity:1;stroke:none;stroke-opacity:1">
    <path
       d="m 25.714286,14.285714 c 0,-1.577143 -0.558096,-2.923809 -1.674286,-4.04 C 22.92381,9.1295238 21.577143,8.5714286 20,8.5714286 c -1.577143,0 -2.92381,0.5580952 -4.04,1.6742854 -1.11619,1.116191 -1.674286,2.462857 -1.674286,4.04 0,1.577143 0.558096,2.92381 1.674286,4.04 C 17.07619,19.441905 18.422857,20 20,20 c 1.577143,0 2.92381,-0.558095 4.04,-1.674286 1.11619,-1.11619 1.674286,-2.462857 1.674286,-4.04 z m 5.714285,0 c 0,1.621905 -0.245714,2.95381 -0.737142,3.995715 C 28.373417,22.841431 20,37.142857 20,37.142857 c 0,0 -8.478242,-14.051552 -10.6942857,-18.86 C 8.8142857,17.24 8.5685714,15.907619 8.5685714,14.285714 c 0,-3.155238 1.1161905,-5.8485711 3.3485716,-8.0799997 2.232381,-2.2314286 4.925714,-3.3476191 8.08,-3.3485714 3.154286,-9.524e-4 5.847619,1.1152381 8.08,3.3485714 2.232381,2.2333333 3.348571,4.9266667 3.348571,8.0799997 z"
       id="path6"
       style="fill:url(#linearGradient4210);fill-opacity:1;stroke:none;stroke-opacity:1"
       inkscape:connector-curvature="0"
       sodipodi:nodetypes="sssssssssccccsssscc" />
  </g>
</svg>
