<?xml version="1.0" standalone="no"?>
<!DOCTYPE svg PUBLIC "-//W3C//DTD SVG 20010904//EN"
 "http://www.w3.org/TR/2001/REC-SVG-20010904/DTD/svg10.dtd">
<svg version="1.0" xmlns="http://www.w3.org/2000/svg"
 width="700.000000pt" height="700.000000pt" viewBox="0 0 700.000000 700.000000"
 preserveAspectRatio="xMidYMid meet">
<metadata>
Created by potrace 1.11, written by Peter Selinger 2001-2013
</metadata>
<g transform="translate(0.000000,700.000000) scale(0.100000,-0.100000)"
fill="#000000" stroke="none">
<path d="M4335 6800 c-359 -24 -693 -127 -1030 -319 l-100 -58 -426 16 c-415
14 -451 14 -1344 -12 -505 -14 -920 -28 -923 -31 -3 -3 7 -459 22 -1013 l27
-1008 -46 -830 -46 -830 21 -605 c12 -333 24 -616 26 -629 5 -23 7 -22 55 25
l49 48 0 101 c0 55 -7 217 -15 360 -26 458 -23 491 57 650 115 228 370 515
630 710 101 75 116 90 108 105 -6 10 -10 21 -10 23 0 11 94 37 100 28 3 -5 35
13 70 40 101 78 96 62 60 183 -18 59 -30 113 -27 120 4 11 63 29 87 28 3 -1
19 -44 35 -96 l30 -96 55 47 c99 85 169 173 221 278 57 115 86 225 124 465 14
91 27 169 28 174 2 5 3 -78 4 -185 0 -325 54 -595 175 -889 46 -112 135 -281
191 -364 l39 -58 -88 -89 c-48 -49 -86 -90 -83 -92 2 -3 19 -12 38 -22 l34
-17 103 104 104 103 -63 95 c-246 371 -368 776 -368 1225 1 517 153 966 466
1374 304 396 758 688 1250 804 324 77 707 77 1030 0 467 -110 899 -375 1196
-734 362 -435 549 -980 525 -1529 -24 -573 -244 -1075 -649 -1481 -233 -234
-472 -392 -764 -507 -275 -109 -516 -154 -823 -154 -443 0 -865 125 -1222 364
-48 32 -93 58 -100 58 -7 0 -57 -46 -110 -102 l-97 -103 -17 25 c-9 14 -97
106 -195 205 l-178 180 -45 -44 -44 -43 -48 36 c-58 44 -112 60 -185 53 -120
-11 -87 19 -976 -869 -656 -655 -827 -832 -848 -874 -54 -107 -43 -220 31
-309 l33 -40 -42 -42 -41 -43 154 -157 c222 -225 246 -243 362 -264 49 -9 80
-9 129 0 107 18 177 61 302 180 l113 108 484 6 c389 5 689 1 1515 -20 l1030
-26 1015 33 c558 18 1017 34 1019 36 1 1 -15 425 -37 941 l-41 938 25 420 25
420 56 114 c129 267 198 492 235 771 16 123 16 439 0 555 -34 248 -107 502
-197 690 l-48 100 -8 305 c-4 168 -8 356 -8 418 l-1 112 -356 0 -356 0 -96 61
c-405 255 -902 380 -1387 349z m-1325 -479 c0 -5 -60 -57 -132 -115 l-133
-107 -32 38 c-18 21 -33 40 -32 43 0 3 41 38 90 78 l91 72 74 0 c41 0 74 -4
74 -9z m3410 -243 c0 -112 3 -228 6 -258 l7 -55 -75 100 c-74 100 -181 224
-241 279 -18 16 -58 53 -90 83 l-58 53 225 0 226 0 0 -202z m-5686 -228 c47
-146 86 -270 86 -276 0 -11 -87 -41 -94 -33 -2 2 -25 69 -52 149 -46 138 -48
151 -52 277 -4 132 1 175 17 157 5 -5 48 -128 95 -274z m1904 238 c15 -17 27
-37 27 -43 0 -12 -429 -375 -443 -375 -13 0 -63 70 -57 81 7 11 436 369 443
369 2 0 15 -14 30 -32z m-518 -440 c16 -18 30 -36 30 -39 0 -4 -62 -62 -137
-130 -76 -68 -173 -157 -216 -198 l-78 -76 -34 40 -34 40 57 57 c76 77 365
337 375 337 4 1 21 -14 37 -31z m-1173 -449 l91 -280 -23 -9 c-13 -5 -36 -10
-51 -12 -27 -3 -28 -2 -116 262 -48 146 -87 271 -85 279 2 13 55 38 83 40 5 1
51 -125 101 -280z m679 -20 l32 -31 -63 -78 c-78 -96 -89 -137 -84 -302 l4
-116 -29 -6 c-69 -14 -73 -11 -80 55 -14 134 -3 245 31 324 19 45 130 185 146
185 6 0 25 -14 43 -31z m-471 -614 c47 -146 88 -271 91 -279 4 -9 -10 -19 -42
-30 -26 -9 -49 -16 -50 -16 -7 0 -185 552 -179 558 8 8 65 30 82 31 7 1 48
-109 98 -264z m381 -42 c13 -75 85 -390 104 -454 11 -36 20 -68 20 -71 0 -11
-91 -31 -99 -22 -16 18 -112 414 -127 521 -6 51 -6 51 22 56 70 10 73 9 80
-30z m-167 -614 c50 -152 91 -279 91 -281 0 -9 -90 -31 -97 -25 -5 6 -183 536
-183 548 0 5 92 38 97 35 1 -1 42 -126 92 -277z m4996 -1072 c-10 -144 -17
-323 -16 -398 0 -106 -2 -136 -13 -136 -7 0 -54 -6 -104 -13 -91 -13 -92 -13
-92 -41 0 -34 -3 -33 114 -14 49 8 92 12 95 9 3 -3 8 -60 10 -127 l3 -122 -23
21 c-45 40 -67 47 -117 34 -108 -27 -209 -116 -457 -405 -188 -219 -236 -267
-320 -321 -80 -51 -184 -149 -318 -300 -75 -85 -132 -139 -161 -154 -42 -23
-45 -23 -70 -6 -68 44 -107 175 -181 616 -29 171 -37 188 -111 221 -92 41
-191 35 -429 -26 -71 -19 -161 -39 -200 -45 -92 -14 -224 -54 -305 -93 -45
-21 -92 -57 -155 -117 -93 -88 -113 -103 -249 -180 -106 -59 -130 -93 -123
-175 6 -77 36 -165 98 -289 27 -54 49 -99 49 -100 0 0 -132 2 -292 6 -377 9
-1148 10 -1303 2 l-120 -7 301 304 c166 167 465 468 666 669 263 263 373 381
396 421 45 79 65 168 60 256 l-5 71 92 92 92 92 84 -55 c46 -30 128 -76 181
-103 l97 -48 17 -73 c13 -52 22 -73 33 -73 34 0 40 14 30 59 -5 24 -7 46 -5
49 3 2 24 -3 47 -12 651 -261 1455 -184 2057 195 216 137 458 351 593 528 43
56 65 78 67 67 2 -9 -4 -135 -13 -279z m-3560 -383 c65 -85 74 -187 25 -288
-26 -54 -117 -148 -852 -882 -784 -782 -826 -823 -881 -843 -110 -40 -207 -24
-280 47 l-37 37 986 986 c577 577 993 985 1000 982 7 -3 25 -20 39 -39z m3521
-500 c42 -46 42 -47 48 -143 15 -233 48 -1093 42 -1098 -8 -8 -166 -14 -1162
-48 -743 -25 -756 -25 -1320 -10 -516 14 -570 17 -583 33 -36 46 -132 264
-144 328 -21 107 -14 121 90 179 128 70 168 99 265 192 53 51 105 91 135 104
79 34 225 79 258 79 16 0 111 21 210 46 197 49 336 65 397 45 63 -21 73 -41
103 -216 48 -287 93 -474 129 -540 42 -77 86 -108 142 -102 61 6 115 50 244
198 131 150 197 213 284 271 110 74 143 106 320 311 263 307 386 415 470 417
22 0 39 -11 72 -46z"/>
<path d="M5978 2252 c-77 -12 -98 -19 -98 -31 1 -40 12 -43 115 -26 55 9 101
17 102 19 6 6 -9 56 -16 55 -3 -1 -50 -9 -103 -17z"/>
<path d="M5723 2212 c-93 -15 -93 -16 -93 -45 0 -33 -11 -33 148 -6 60 11 63
13 60 37 -2 14 -7 26 -13 27 -5 1 -52 -5 -102 -13z"/>
<path d="M3595 2180 c-4 -6 4 -53 16 -105 21 -85 25 -95 45 -95 13 0 25 4 28
8 3 5 -5 51 -17 103 -19 80 -26 94 -44 97 -12 2 -24 -2 -28 -8z"/>
<path d="M5478 2170 c-54 -9 -100 -19 -103 -21 -10 -11 8 -49 24 -49 24 0 183
29 188 34 3 3 1 15 -3 28 l-9 24 -97 -16z"/>
<path d="M5230 2129 c-25 -4 -60 -11 -77 -14 -26 -5 -33 -11 -33 -29 0 -12 2
-25 5 -28 3 -2 49 3 102 11 95 16 98 17 101 44 3 24 0 27 -25 26 -15 -1 -48
-5 -73 -10z"/>
<path d="M4950 2081 c-81 -16 -85 -17 -82 -41 2 -14 5 -26 7 -28 1 -1 48 5
104 14 101 17 109 22 95 58 -7 19 -13 19 -124 -3z"/>
<path d="M4730 2044 c-114 -20 -120 -22 -120 -45 0 -35 18 -35 183 -3 20 4 27
11 27 29 0 13 -3 26 -7 28 -5 2 -42 -2 -83 -9z"/>
<path d="M4470 1999 c-25 -4 -60 -11 -77 -14 -28 -5 -33 -10 -33 -35 0 -27 3
-29 28 -24 15 3 61 11 102 17 70 12 75 14 75 37 0 29 -22 34 -95 19z"/>
<path d="M4193 1952 c-72 -12 -93 -19 -93 -31 1 -40 12 -43 110 -26 52 9 97
18 101 20 11 7 -2 55 -15 54 -6 -1 -53 -9 -103 -17z"/>
<path d="M3655 1930 c-6 -9 10 -102 21 -121 6 -11 129 17 128 29 -4 46 -3 45
-44 38 -38 -6 -40 -5 -48 26 -8 34 -43 51 -57 28z"/>
<path d="M3950 1909 c-52 -10 -96 -18 -97 -18 -2 -1 -3 -12 -3 -26 0 -29 13
-31 106 -15 103 18 104 19 104 45 0 13 -3 26 -7 28 -5 2 -51 -4 -103 -14z"/>
<path d="M4350 6424 c-296 -34 -448 -73 -665 -172 -599 -274 -1007 -818 -1111
-1483 -22 -139 -22 -419 0 -559 136 -875 807 -1534 1674 -1644 431 -55 884 42
1257 268 254 154 492 398 652 666 125 210 218 476 254 725 17 117 17 415 0
530 -124 854 -780 1519 -1626 1651 -90 14 -369 26 -435 18z m409 -100 c672
-94 1252 -569 1480 -1214 28 -80 28 -80 7 -85 -22 -4 -326 -45 -339 -45 -8 0
3 -92 12 -102 3 -4 89 5 190 18 101 14 185 24 187 21 2 -2 13 -57 25 -123 24
-139 29 -419 10 -549 -63 -428 -235 -772 -535 -1070 -357 -356 -800 -539
-1306 -539 -346 0 -662 86 -952 260 -93 55 -94 56 -113 155 -10 50 -23 93 -30
96 -16 5 -95 -15 -95 -25 0 -4 4 -22 9 -40 l10 -33 -49 41 c-113 95 -274 284
-359 423 -183 300 -273 619 -273 977 0 505 186 956 541 1311 419 418 986 606
1580 523z"/>
<path d="M4477 5931 c-150 -61 -235 -227 -192 -377 21 -75 58 -130 118 -174
l47 -35 -210 -3 -211 -2 3 -138 3 -137 213 -3 212 -2 0 -78 c1 -177 -21 -1370
-26 -1408 l-5 -41 -47 8 c-139 26 -324 100 -450 179 l-34 21 48 55 c40 47 45
58 33 69 -28 28 -574 454 -577 450 -4 -4 150 -918 156 -925 2 -3 43 37 90 88
l87 92 55 -46 c167 -141 385 -242 603 -279 l37 -6 0 -115 0 -114 163 2 162 3
-2 113 c-2 102 0 112 17 112 45 0 224 55 310 96 115 55 170 88 279 173 l85 65
87 -94 c48 -52 90 -92 92 -90 3 3 39 208 81 455 43 248 79 456 81 463 2 6 1
12 -3 12 -7 0 -554 -429 -582 -455 -12 -13 -8 -21 35 -65 47 -48 48 -50 30
-64 -51 -38 -188 -107 -265 -134 -93 -33 -238 -67 -246 -59 -5 4 -33 1216 -34
1440 l0 77 215 0 216 0 -3 143 -3 142 -198 3 -199 2 51 46 c74 67 106 138 106
239 0 67 -4 89 -28 137 -31 62 -84 116 -149 149 -61 32 -185 37 -251 10z m174
-240 c51 -51 28 -128 -44 -146 -61 -16 -121 56 -97 115 27 65 92 79 141 31z"/>
<path d="M5592 4942 l-202 -25 6 -51 c4 -28 8 -53 10 -54 2 -3 307 32 381 44
32 5 32 5 26 52 -3 26 -8 50 -12 53 -3 3 -97 -6 -209 -19z"/>
<path d="M5055 4876 l-170 -22 3 -49 c1 -27 4 -51 7 -53 4 -5 366 35 395 44
13 3 15 14 10 52 -5 46 -6 47 -40 48 -19 1 -111 -8 -205 -20z"/>
<path d="M4070 4729 c-91 -15 -180 -31 -199 -34 -33 -6 -33 -7 -28 -51 2 -25
8 -48 11 -51 6 -6 153 15 349 49 l58 10 -7 47 c-3 25 -9 49 -13 52 -3 3 -80
-7 -171 -22z"/>
<path d="M3521 4635 c-101 -19 -186 -36 -189 -39 -2 -3 -1 -26 2 -51 9 -55 -4
-55 231 -11 198 36 182 26 177 106 -2 37 11 37 -221 -5z"/>
<path d="M3111 4560 c-51 -11 -95 -21 -96 -22 -3 -4 53 -289 57 -294 2 -1 25
2 51 8 54 11 55 14 32 118 -8 36 -14 70 -15 77 0 6 22 14 50 18 54 7 58 14 44
84 -7 36 0 35 -123 11z"/>
<path d="M3125 4151 c-26 -6 -30 -11 -27 -35 4 -40 71 -369 76 -373 9 -9 96
10 96 21 1 6 -16 98 -37 204 -41 211 -34 199 -108 183z"/>
<path d="M3240 3646 c-40 -10 -45 -14 -41 -36 7 -50 78 -370 83 -376 7 -6 98
16 98 24 0 20 -83 388 -88 393 -4 4 -27 1 -52 -5z"/>
</g>
</svg>
